<svg version="1.0" xmlns="http://www.w3.org/2000/svg" width="800.000000" height="800.000000" viewBox="0 0 800.000000 800.000000" preserveAspectRatio="xMidYMid meet">
  <metadata>
    <rdf:RDF xmlns:rdf="http://www.w3.org/1999/02/22-rdf-syntax-ns#" xmlns:rdfs="http://www.w3.org/2000/01/rdf-schema#" xmlns:dc="http://purl.org/dc/elements/1.1/">
      <rdf:Description dc:format="image/svg+xml" dc:Label="1" dc:ContentProducer="001191330110MACRLGPT8B00000" dc:ProduceID="398213439" dc:ReservedCode1="wT311ZAGPCGRwmUm2SKn1Vt6Z7EbIfDX+2QV0hFBBaU=" dc:ContentPropagator="001191330110MACRLGPT8B00000" dc:PropagateID="398213439" dc:ReservedCode2="wT311ZAGPCGRwmUm2SKn1Vt6Z7EbIfDX+2QV0hFBBaU="/>
    </rdf:RDF>
  </metadata>
  <g transform="translate(0.000000,800.000000) scale(0.100000,-0.100000)" fill="#000000" stroke="none">
    <path d="M5740 5571 c0 -6 4 -12 9 -15 5 -3 27 -56 50 -118 48 -130 55 -143 70 -134 19 12 12 89 -13 142 -34 73 -116 161 -116 125z"/>
    <path d="M6090 5559 c-45 -27 -106 -85 -131 -126 -25 -41 -84 -218 -61 -183 9 13 42 56 72 95 53 67 148 196 164 223 11 18 -4 15 -44 -9z"/>
    <path d="M6139 5382 c-41 -21 -69 -48 -118 -111 -35 -45 -62 -84 -60 -86 11 -9 156 89 225 153 l78 72 -36 0 c-20 0 -59 -12 -89 -28z"/>
    <path d="M5664 5056 c-61 -19 -97 -47 -286 -223 -266 -248 -514 -510 -1003 -1058 -356 -399 -431 -475 -469 -475 -33 0 -183 144 -494 475 -830 883 -1191 1235 -1296 1265 -102 28 -206 -45 -206 -145 0 -63 28 -102 154 -214 142 -127 426 -415 760 -771 331 -352 962 -986 1015 -1021 63 -41 132 -41 187 0 38 28 232 223 443 446 58 61 152 160 211 220 218 227 351 366 530 554 102 107 258 269 347 360 262 270 302 313 328 367 22 44 25 56 16 94 -11 50 -51 95 -106 121 -46 22 -74 23 -131 5z m78 -160 l51 -35 -39 -6 c-22 -4 -71 -22 -111 -40 -39 -19 -89 -37 -110 -40 -21 -4 -47 -9 -58 -12 -36 -10 -2 13 48 31 51 19 60 33 25 38 -21 3 -20 5 12 23 34 18 34 19 11 24 -22 6 -21 7 15 28 58 32 96 29 156 -11z m-1869 -1694 c35 -23 43 -24 122 -18 47 3 85 3 85 -1 0 -4 -24 -32 -52 -62 -29 -29 -45 -51 -35 -47 72 25 73 19 8 -43 -35 -33 -71 -61 -81 -61 -25 0 -119 116 -170 212 -30 57 -24 66 17 25 53 -53 67 -51 33 5 -11 18 -20 37 -20 42 0 8 8 3 93 -52z"/>
    <path d="M5261 5021 c-14 -9 -9 -41 7 -41 15 0 34 28 27 40 -8 12 -16 13 -34 1z"/>
    <path d="M2398 4995 c-16 -9 -28 -19 -28 -23 0 -4 44 -45 97 -92 54 -47 130 -118 170 -158 40 -40 73 -71 73 -68 0 23 -42 91 -87 138 -31 32 -54 61 -50 64 3 3 24 8 46 11 23 3 41 9 41 13 0 4 -31 16 -69 26 -38 11 -70 23 -71 28 -1 6 18 18 42 27 l43 17 -30 13 c-48 19 -146 22 -177 4z"/>
    <path d="M5697 4505 c-64 -68 -117 -126 -117 -129 0 -13 57 8 103 37 40 25 50 28 58 16 5 -8 9 -19 9 -25 0 -6 7 -17 15 -24 17 -14 18 -13 16 60 -1 25 7 76 18 115 11 38 19 71 17 72 -1 1 -54 -54 -119 -122z"/>
    <path d="M3573 3771 c-70 -12 -73 -6 65 -123 28 -25 69 -66 90 -93 26 -34 38 -43 40 -32 3 13 -26 84 -55 138 -2 4 10 12 28 19 29 13 30 14 13 27 -10 7 -39 13 -66 13 -56 0 -65 20 -20 44 l27 15 -40 -1 c-22 0 -59 -4 -82 -7z"/>
    <path d="M3889 3506 c-10 -24 -17 -51 -13 -59 12 -32 74 -24 74 10 0 27 -23 93 -32 93 -5 0 -18 -20 -29 -44z"/>
  </g>
</svg>