<svg version="1.0" xmlns="http://www.w3.org/2000/svg" width="800.000000" height="800.000000" viewBox="0 0 800.000000 800.000000" preserveAspectRatio="xMidYMid meet">
  <metadata>
    <rdf:RDF xmlns:rdf="http://www.w3.org/1999/02/22-rdf-syntax-ns#" xmlns:rdfs="http://www.w3.org/2000/01/rdf-schema#" xmlns:dc="http://purl.org/dc/elements/1.1/">
      <rdf:Description dc:format="image/svg+xml" dc:Label="1" dc:ContentProducer="001191330110MACRLGPT8B00000" dc:ProduceID="398213440" dc:ReservedCode1="X89EyE0xwaJL9rj7L0mHCGUC8r9Ki5Z+74E8Tdl1NQU=" dc:ContentPropagator="001191330110MACRLGPT8B00000" dc:PropagateID="398213440" dc:ReservedCode2="X89EyE0xwaJL9rj7L0mHCGUC8r9Ki5Z+74E8Tdl1NQU="/>
    </rdf:RDF>
  </metadata>
  <g transform="translate(0.000000,800.000000) scale(0.100000,-0.100000)" fill="#000000" stroke="none">
    <path d="M5793 6282 c-175 -90 -400 -284 -520 -447 -55 -76 -151 -245 -138 -245 20 0 124 62 204 122 185 139 406 373 505 537 53 86 52 87 -51 33z"/>
    <path d="M4937 6224 c-15 -26 -40 -235 -41 -339 -1 -105 2 -126 22 -170 12 -27 30 -57 39 -67 15 -17 17 -17 29 0 23 33 54 140 54 186 0 75 -62 343 -89 385 -5 7 -11 9 -14 5z"/>
    <path d="M5515 5515 c-71 -7 -148 -19 -170 -27 -47 -17 -125 -65 -125 -76 0 -5 23 -19 52 -33 78 -36 184 -33 303 11 93 33 197 83 250 119 l30 21 -105 -1 c-58 -1 -163 -7 -235 -14z"/>
    <path d="M2625 5291 c-92 -26 -249 -113 -362 -198 -289 -221 -336 -259 -378 -305 -25 -27 -50 -68 -57 -90 -8 -29 -23 -47 -49 -64 -44 -27 -70 -62 -93 -125 -17 -44 -17 -53 14 -305 17 -142 64 -544 105 -892 80 -679 82 -687 143 -731 16 -11 64 -30 108 -41 43 -12 275 -75 514 -141 480 -133 930 -257 1175 -324 88 -24 347 -95 575 -159 933 -258 895 -249 957 -225 55 21 94 71 163 214 158 330 553 1137 580 1186 l30 54 0 215 0 215 40 -82 c45 -92 88 -134 156 -153 82 -23 156 16 201 107 24 49 28 69 27 133 -2 96 -23 154 -125 336 -152 272 -257 544 -268 699 -8 98 -25 136 -70 160 -30 15 -238 54 -291 54 -19 0 -96 11 -170 26 -108 20 -140 23 -162 14 -24 -10 -30 -8 -50 15 -19 22 -41 30 -130 46 -379 70 -348 62 -348 87 0 29 -38 82 -62 88 -13 3 -285 48 -605 100 -614 99 -615 99 -669 56 -20 -16 -36 -19 -67 -16 -83 10 -727 65 -749 64 -13 0 -50 -8 -83 -18z m116 -47 c40 -36 -27 -110 -233 -260 -68 -49 -169 -134 -224 -189 -89 -87 -104 -108 -118 -155 -11 -35 -14 -70 -10 -97 l6 -41 -73 18 c-41 10 -109 26 -151 35 l-78 17 0 37 c0 57 45 137 102 182 52 41 61 43 176 39 28 -1 52 1 52 4 0 3 -16 12 -35 20 -19 8 -35 20 -35 25 0 6 21 22 48 36 45 25 46 26 15 22 -18 -2 -33 -1 -32 2 1 11 188 152 257 193 90 55 185 99 247 114 67 16 66 16 86 -2z m429 -25 c146 -12 267 -23 269 -26 3 -2 -4 -10 -15 -17 -61 -43 -656 -551 -672 -574 -30 -43 -42 -90 -42 -162 l0 -68 -67 15 c-38 8 -138 29 -223 47 -173 36 -167 32 -169 127 -1 59 21 122 64 181 28 39 251 221 428 351 48 35 77 82 77 126 l0 33 43 -6 c23 -3 161 -15 307 -27z m680 -132 c0 -7 -14 -26 -30 -42 l-30 -29 24 -13 c44 -23 149 -42 269 -49 116 -7 148 -18 131 -45 -5 -9 -38 -10 -123 -5 -133 8 -249 29 -304 55 l-37 19 -44 -34 c-83 -63 -289 -193 -297 -188 -28 17 2 46 147 144 86 57 151 106 145 108 -6 2 -34 -1 -63 -7 -53 -12 -73 -5 -63 20 4 10 43 24 103 38 53 13 104 27 112 32 23 13 60 10 60 -4z m1031 -148 c30 -5 137 -25 238 -44 101 -19 188 -40 192 -47 4 -6 2 -22 -4 -34 -7 -13 -109 -125 -227 -250 -118 -124 -231 -250 -251 -278 -53 -75 -79 -154 -86 -262 -3 -52 -10 -94 -15 -94 -7 0 -538 110 -604 125 -19 4 -20 9 -12 72 15 124 28 141 386 497 180 179 328 326 328 326 1 0 26 -5 55 -11z m-546 -164 c0 -15 -14 -26 -55 -42 -58 -23 -137 -36 -465 -78 -110 -14 -252 -34 -317 -45 -64 -11 -128 -20 -142 -20 -28 0 -43 17 -28 32 12 12 240 49 552 88 249 32 355 52 400 76 33 18 55 13 55 -11z m1536 -19 c36 -6 67 -15 68 -21 2 -13 -134 -234 -359 -585 -97 -151 -185 -291 -195 -310 -23 -46 -22 -46 -43 -27 -10 9 -45 23 -78 30 l-59 14 3 64 c5 79 43 197 85 264 36 56 157 218 331 443 116 151 118 153 149 146 18 -4 62 -12 98 -18z m-486 -71 c0 -13 -8 -21 -24 -23 -28 -4 -46 11 -37 33 9 25 61 16 61 -10z m-70 -95 c0 -8 -8 -16 -17 -18 -13 -2 -18 3 -18 18 0 15 5 20 18 18 9 -2 17 -10 17 -18z m705 -71 c0 -12 -7 -19 -20 -19 -22 0 -29 35 -7 43 18 6 27 -2 27 -24z m-4258 -29 c2 -6 140 -39 308 -75 1264 -265 3045 -650 3224 -696 l38 -10 -6 -282 c-4 -155 -11 -455 -17 -667 -6 -212 -14 -522 -18 -689 -8 -304 -8 -305 -32 -324 -18 -15 -33 -18 -64 -13 -22 3 -285 73 -585 156 -300 83 -619 171 -710 196 -91 25 -489 135 -885 244 -396 109 -786 217 -867 239 -164 45 -192 59 -207 104 -6 18 -40 280 -76 582 -35 303 -80 683 -100 845 -35 294 -41 381 -28 393 9 10 21 8 25 -3z m2353 -29 c7 -12 -12 -24 -25 -16 -11 7 -4 25 10 25 5 0 11 -4 15 -9z m-88 -27 c-3 -3 -12 -4 -19 -1 -8 3 -5 6 6 6 11 1 17 -2 13 -5z m2083 -134 c33 -93 119 -274 201 -421 83 -151 111 -225 112 -299 0 -75 -17 -123 -59 -160 -28 -24 -44 -30 -81 -30 -41 0 -50 5 -93 48 -38 38 -52 62 -73 127 -40 123 -47 183 -47 391 0 183 1 192 20 197 12 3 20 14 20 27 0 17 -4 20 -20 15 -19 -6 -20 -2 -20 91 0 54 4 94 8 89 5 -6 19 -39 32 -75z m-376 -328 c3 -5 -6 -44 -20 -88 -33 -107 -32 -111 21 -134 27 -12 45 -26 45 -36 0 -17 -22 -16 -76 1 -20 6 -23 1 -39 -74 -15 -66 -21 -81 -36 -81 -23 0 -24 23 -4 105 19 78 18 81 -3 62 -42 -38 -44 -2 -4 45 16 18 36 55 45 82 20 60 20 56 2 56 -24 0 -18 22 13 47 28 23 47 29 56 15z m212 -869 c-40 -118 -148 -363 -157 -357 -12 7 -12 214 0 214 5 0 14 -7 21 -15 7 -8 16 -15 20 -15 7 0 48 84 41 85 -2 0 6 19 18 43 12 23 26 54 32 69 8 23 8 24 -6 13 -21 -18 -19 -9 16 60 16 33 27 64 24 70 -3 5 -3 16 2 23 5 7 9 -15 11 -53 2 -49 -4 -83 -22 -137z m-346 -482 c-6 -12 -16 -21 -22 -21 -7 0 -6 5 2 15 6 8 9 18 6 24 -3 5 0 11 6 14 18 6 21 -8 8 -32z m34 -18 c-12 -58 -26 -92 -40 -103 -7 -7 -14 -18 -14 -24 0 -6 7 -2 15 8 14 18 15 15 15 -40 0 -47 -8 -76 -39 -144 -47 -103 -189 -401 -193 -405 -2 -2 -3 102 -3 231 0 129 4 234 8 234 5 0 23 -11 41 -25 18 -14 35 -25 38 -25 4 0 11 22 18 50 6 27 27 74 46 105 18 31 32 60 31 63 -3 10 65 102 75 102 5 0 6 -12 2 -27z"/>
    <path d="M2325 5000 c15 -7 11 -9 -19 -7 -21 1 -41 -3 -42 -8 -6 -16 77 -48 89 -36 8 8 1 11 -22 11 -40 0 -33 15 11 24 26 5 30 9 18 16 -8 5 -24 9 -35 9 l-20 0 20 -9z"/>
    <path d="M5345 4170 c-10 -16 4 -30 31 -30 27 0 33 24 8 34 -22 8 -32 8 -39 -4z"/>
    <path d="M2752 3842 c-120 -54 -182 -101 -182 -138 0 -33 31 -61 75 -70 39 -7 136 -1 170 11 11 4 -11 -21 -50 -56 -38 -34 -135 -128 -215 -208 -117 -117 -152 -159 -177 -211 -59 -122 -50 -195 29 -236 76 -39 325 -26 771 42 282 42 367 44 367 7 0 -8 -15 -33 -32 -56 -58 -73 -36 -150 50 -178 22 -7 72 -10 131 -7 182 9 396 103 574 251 26 22 49 38 50 36 2 -2 13 -36 25 -76 28 -89 88 -160 169 -199 46 -23 72 -28 158 -32 83 -4 103 -2 108 10 10 28 -8 36 -100 40 -77 3 -101 9 -149 34 -102 51 -153 148 -157 291 -2 61 -4 68 -22 68 -14 0 -21 -8 -23 -27 -6 -48 -161 -173 -307 -246 -144 -73 -225 -95 -348 -96 -103 -1 -110 0 -128 23 -10 13 -19 26 -19 30 0 4 17 29 37 55 43 55 47 96 14 129 -36 36 -137 35 -411 -7 -273 -41 -510 -66 -613 -66 -73 0 -157 27 -157 49 0 23 123 66 375 131 256 67 404 110 486 141 74 29 182 96 206 128 9 13 33 16 142 16 108 0 133 3 147 17 30 30 8 37 -114 37 -265 0 -477 74 -636 222 -66 62 -86 90 -114 162 -7 15 -15 27 -19 26 -5 0 -54 -22 -111 -47z m112 -62 c42 -63 42 -63 -76 -86 -98 -19 -161 -13 -156 14 2 14 177 112 199 112 4 0 18 -18 33 -40z m276 -244 c71 -35 159 -69 230 -87 l45 -11 -30 -25 c-82 -67 -203 -111 -570 -207 -115 -30 -256 -69 -312 -85 -56 -17 -105 -31 -108 -31 -4 0 9 28 26 63 25 46 70 99 179 207 80 80 187 181 238 224 51 44 92 84 92 89 0 4 33 -17 72 -49 40 -31 102 -71 138 -88z"/>
    <path d="M4810 3621 c-14 -27 -13 -37 6 -55 23 -24 51 -19 71 10 16 26 16 27 -6 45 -30 24 -58 24 -71 0z"/>
    <path d="M4952 3413 c4 -21 33 -25 33 -3 0 8 -8 16 -18 18 -14 3 -18 -1 -15 -15z"/>
    <path d="M4756 3355 c-21 -22 -20 -38 3 -59 18 -17 20 -17 41 4 19 19 20 24 7 43 -18 28 -31 31 -51 12z"/>
    <path d="M1968 2998 c3 -40 9 -125 16 -188 l11 -114 45 -12 c25 -7 108 -29 185 -49 178 -48 245 -64 245 -60 0 9 -205 137 -289 181 l-94 49 49 5 49 6 -34 19 c-18 11 -52 33 -74 49 l-42 30 28 11 28 11 -27 14 c-14 8 -42 38 -61 67 -19 29 -36 53 -37 53 -1 0 0 -33 2 -72z"/>
    <path d="M5109 2414 l-34 -36 42 21 c23 11 45 21 47 21 13 0 -104 -160 -151 -208 -29 -30 -53 -56 -53 -58 0 -2 19 -4 43 -4 47 0 87 -9 87 -19 -1 -9 -120 -88 -165 -107 l-40 -18 45 -5 45 -6 -45 -17 c-40 -15 -119 -32 -190 -41 -24 -3 -24 -4 5 -11 17 -4 118 -32 225 -63 107 -30 204 -56 215 -56 20 -2 20 3 16 303 -2 168 -7 313 -12 323 -15 27 -42 20 -80 -19z"/>
    <path d="M6122 4093 c2 -10 10 -18 18 -18 8 0 16 8 18 18 2 12 -3 17 -18 17 -15 0 -20 -5 -18 -17z"/>
    <path d="M2366 5282 c-3 -5 1 -15 9 -22 18 -15 68 -4 62 13 -4 15 -63 22 -71 9z"/>
  </g>
</svg>